<?xml version="1.0" encoding="UTF-8" standalone="no"?>
<svg
   clip-rule="evenodd"
   fill-rule="evenodd"
   stroke-linejoin="round"
   stroke-miterlimit="1.41421"
   viewBox="0 0 266.59775 199.99988"
   version="1.1"
   id="svg5"
   sodipodi:docname="gmail.svg"
   width="266.59775"
   height="199.99988"
   inkscape:version="1.3.2 (091e20ef0f, 2023-11-25, custom)"
   xmlns:inkscape="http://www.inkscape.org/namespaces/inkscape"
   xmlns:sodipodi="http://sodipodi.sourceforge.net/DTD/sodipodi-0.dtd"
   xmlns="http://www.w3.org/2000/svg"
   xmlns:svg="http://www.w3.org/2000/svg">
  <defs
     id="defs5" />
  <sodipodi:namedview
     id="namedview5"
     pagecolor="#ffffff"
     bordercolor="#000000"
     borderopacity="0.25"
     inkscape:showpageshadow="2"
     inkscape:pageopacity="0.0"
     inkscape:pagecheckerboard="0"
     inkscape:deskcolor="#d1d1d1"
     inkscape:zoom="2.015"
     inkscape:cx="-13.647643"
     inkscape:cy="67.493797"
     inkscape:window-width="1920"
     inkscape:window-height="1012"
     inkscape:window-x="0"
     inkscape:window-y="32"
     inkscape:window-maximized="1"
     inkscape:current-layer="svg5" />
  <g
     fill-rule="nonzero"
     transform="matrix(3.02952,0,0,3.02952,-157.53504,-127.18827)"
     id="g5">
    <path
       d="M 58,108 H 72 V 74 L 52,59 v 43 c 0,3.32 2.69,6 6,6"
       fill="#4285f4"
       id="path1" />
    <path
       d="m 120,108 h 14 c 3.32,0 6,-2.69 6,-6 V 59 l -20,15"
       fill="#34a853"
       id="path2" />
    <path
       d="m 120,48 v 26 l 20,-15 v -8 c 0,-7.42 -8.47,-11.65 -14.4,-7.2"
       fill="#fbbc04"
       id="path3" />
    <path
       d="M 72,74 V 48 L 96,66 120,48 V 74 L 96,92"
       fill="#ea4335"
       id="path4" />
    <path
       d="m 52,51 v 8 L 72,74 V 48 L 66.4,43.8 C 60.46,39.35 52,43.58 52,51"
       fill="#c5221f"
       id="path5" />
  </g>
</svg>
