<?xml version="1.0" encoding="utf-8"?>
<!-- Generator: Adobe Illustrator 21.0.0, SVG Export Plug-In . SVG Version: 6.00 Build 0)  -->
<svg version="1.1" id="Layer_1" xmlns="http://www.w3.org/2000/svg" xmlns:xlink="http://www.w3.org/1999/xlink" x="0px" y="0px"
	 viewBox="0 0 512 512" style="enable-background:new 0 0 512 512;" xml:space="preserve">
<g>
	<path d="M506.7,58.7c-5.2-12.3-13.8-22.7-24.7-30c-5.4-3.7-11.5-6.6-17.9-8.6c-6.4-2-13.3-3.1-20.3-3.1H68.3v0.1
		c-9.4,0-18.3,1.9-26.5,5.4c-12.3,5.2-22.7,13.8-30,24.7C8,52.6,5.1,58.6,3.1,65C1.1,71.5,0,78.3,0,85.3v341.3
		c0,9.4,1.9,18.4,5.4,26.6c5.2,12.3,13.8,22.7,24.7,30c5.4,3.7,11.5,6.6,17.9,8.6s13.3,3.1,20.3,3.1h375.5c9.4,0,18.4-1.9,26.6-5.4
		c12.3-5.2,22.7-13.8,30-24.7c3.7-5.4,6.6-11.5,8.6-17.9c2-6.4,3.1-13.3,3.1-20.3V85.3C512.1,75.9,510.2,66.9,506.7,58.7z
		 M477.9,426.7c0,4.8-1,9.2-2.7,13.3c-2.6,6.1-6.9,11.3-12.4,15c-2.7,1.8-5.7,3.3-8.9,4.3s-6.6,1.5-10.2,1.5H68.3
		c-4.8,0-9.2-1-13.3-2.7c-6.1-2.6-11.3-6.9-15-12.4c-1.8-2.7-3.3-5.7-4.3-8.9s-1.5-6.6-1.5-10.2V85.3c0-4.8,1-9.2,2.7-13.3
		c2.6-6.1,6.9-11.3,12.4-15c2.7-1.8,5.7-3.3,8.9-4.3s6.6-1.5,10.2-1.5h375.4c4.8,0,9.2,1,13.3,2.7c6.1,2.6,11.3,6.9,15,12.4
		c1.8,2.7,3.3,5.7,4.3,8.9c1,3.2,1.5,6.6,1.5,10.2V426.7z"/>
	<path d="M187.7,170.6c0-5.2-2.4-10.1-6.4-13.3L96,89.1c-7.4-5.9-18.1-4.7-24,2.7c-5.9,7.3-4.7,18,2.7,23.9l68.7,54.9l-68.7,54.9
		c-7.4,5.9-8.6,16.6-2.7,24c5.9,7.4,16.6,8.6,24,2.7l85.3-68.3C185.3,180.7,187.7,175.8,187.7,170.6z"/>
	<path d="M256,221.8h-68.3c-9.4,0-17.1,7.6-17.1,17.1c0.1,9.5,7.7,17.1,17.1,17.1H256c9.4,0,17.1-7.6,17.1-17.1
		C273.1,229.5,265.5,221.8,256,221.8z"/>
</g>
</svg>
