<?xml version="1.0" encoding="UTF-8" standalone="no"?>
<svg
   clip-rule="evenodd"
   fill-rule="evenodd"
   stroke-linejoin="round"
   stroke-miterlimit="2"
   viewBox="0 0 270 270"
   version="1.1"
   id="svg2"
   sodipodi:docname="typescript.svg"
   width="270"
   height="270"
   inkscape:version="1.3.2 (091e20ef0f, 2023-11-25, custom)"
   xmlns:inkscape="http://www.inkscape.org/namespaces/inkscape"
   xmlns:sodipodi="http://sodipodi.sourceforge.net/DTD/sodipodi-0.dtd"
   xmlns="http://www.w3.org/2000/svg"
   xmlns:svg="http://www.w3.org/2000/svg">
  <defs
     id="defs2" />
  <sodipodi:namedview
     id="namedview2"
     pagecolor="#ffffff"
     bordercolor="#000000"
     borderopacity="0.25"
     inkscape:showpageshadow="2"
     inkscape:pageopacity="0.0"
     inkscape:pagecheckerboard="0"
     inkscape:deskcolor="#d1d1d1"
     inkscape:zoom="2.015"
     inkscape:cx="135.23573"
     inkscape:cy="134.98759"
     inkscape:window-width="1920"
     inkscape:window-height="1012"
     inkscape:window-x="0"
     inkscape:window-y="32"
     inkscape:window-maximized="1"
     inkscape:current-layer="svg2" />
  <path
     d="M 270,50 C 270,22.404 247.596,0 220,0 H 50 C 22.404,0 0,22.404 0,50 v 170 c 0,27.596 22.404,50 50,50 h 170 c 27.596,0 50,-22.404 50,-50 z"
     fill="#3178c6"
     id="path1" />
  <path
     d="m 167.168,214.629 v 26.367 c 4.271,2.215 9.492,3.85 15.293,4.957 5.801,1.108 12.129,1.635 18.457,1.635 6.328,0 12.129,-0.58 17.93,-1.793 5.8,-1.213 10.547,-3.217 14.765,-5.801 4.272,-2.795 7.91,-6.328 10.02,-11.074 2.109,-4.746 3.744,-10.02 3.744,-16.875 0,-4.799 -0.738,-8.965 -2.162,-12.656 -1.424,-3.692 -3.481,-6.856 -6.328,-9.493 -2.69,-2.794 -5.801,-5.273 -9.492,-7.382 -3.692,-2.11 -7.911,-4.325 -12.657,-6.328 -3.48,-1.424 -6.328,-2.795 -9.492,-4.166 -2.742,-1.372 -5.115,-2.743 -6.855,-4.114 -1.952,-1.424 -3.428,-2.9 -4.483,-4.429 -1.054,-1.582 -1.582,-3.323 -1.582,-5.274 0,-1.793 0.47,-3.428 1.424,-4.904 0.954,-1.477 2.268,-2.69 3.955,-3.744 1.688,-1.055 3.797,-1.846 6.328,-2.426 2.479,-0.58 5.221,-0.844 8.438,-0.844 2.215,0 4.535,0.164 6.855,0.496 2.426,0.332 4.904,0.844 7.383,1.529 2.479,0.686 4.904,1.529 7.383,2.584 2.32,1.055 4.482,2.268 6.328,3.639 v -24.785 c -4.008,-1.53 -8.438,-2.69 -13.184,-3.428 -4.746,-0.738 -10.019,-1.108 -16.347,-1.108 -6.328,0 -12.129,0.686 -17.93,2.004 -5.801,1.319 -10.547,3.428 -14.766,6.329 -4.271,2.847 -7.382,6.328 -10.019,11.074 -2.479,4.429 -3.692,9.492 -3.692,15.82 0,7.91 2.268,14.766 6.856,20.039 4.535,5.801 11.601,10.02 20.566,14.238 3.639,1.477 6.856,2.954 10.02,4.377 3.164,1.424 5.801,2.901 7.91,4.43 2.268,1.529 4.061,3.217 5.273,5.01 1.319,1.793 2.004,3.902 2.004,6.328 0,1.687 -0.411,3.269 -1.213,4.746 -0.801,1.477 -2.056,2.742 -3.744,3.797 -1.687,1.055 -3.744,1.898 -6.328,2.531 -2.478,0.58 -5.273,0.897 -8.965,0.897 -5.8,0 -11.601,-1.002 -16.875,-3.006 -5.8,-2.004 -11.074,-5.01 -15.82,-8.965 z m -44.297,-64.863 h 33.75 V 128.145 H 62.227 v 21.621 h 33.75 v 96.504 h 26.894 z"
     fill="#ffffff"
     id="path2" />
</svg>
